<?xml version="1.0" standalone="no"?>
<!DOCTYPE svg PUBLIC "-//W3C//DTD SVG 20010904//EN"
 "http://www.w3.org/TR/2001/REC-SVG-20010904/DTD/svg10.dtd">
<svg version="1.0" xmlns="http://www.w3.org/2000/svg"
 width="512.000000pt" height="512.000000pt" viewBox="0 0 512.000000 512.000000"
 preserveAspectRatio="xMidYMid meet">
<metadata>
Created by potrace 1.11, written by Peter Selinger 2001-2013
</metadata>
<g transform="translate(0.000000,512.000000) scale(0.100000,-0.100000)"
fill="#000000" stroke="none">
<path d="M1756 4228 c-68 -91 -142 -248 -173 -363 -22 -86 -26 -121 -26 -245
0 -125 4 -159 27 -244 32 -122 96 -257 170 -356 83 -112 81 -115 -84 -123
-234 -12 -440 -87 -610 -224 -202 -162 -346 -422 -367 -660 -5 -61 -3 -73 9
-73 10 0 21 22 32 63 72 261 290 491 550 578 313 105 645 30 884 -200 35 -34
71 -61 81 -61 16 0 49 29 65 57 4 7 -3 33 -14 59 -68 149 -5 318 146 389 56
27 70 48 55 86 -8 21 -21 27 -101 42 -284 54 -531 253 -640 517 -47 114 -65
210 -63 345 1 146 23 240 88 372 50 101 50 103 32 103 -8 0 -35 -28 -61 -62z"/>
<path d="M3297 4283 c-3 -4 15 -48 38 -98 67 -137 89 -234 88 -385 -1 -94 -6
-145 -22 -205 -41 -155 -121 -294 -232 -402 -140 -137 -265 -203 -459 -242
l-85 -17 -3 -41 c-3 -42 -3 -42 52 -68 72 -34 141 -110 161 -178 20 -67 19
-111 -6 -177 -11 -30 -23 -63 -26 -73 -6 -20 41 -77 65 -77 8 0 45 29 82 64
87 81 141 118 247 168 145 68 343 95 499 67 311 -55 569 -270 669 -558 41
-116 44 -123 56 -115 16 9 5 119 -22 214 -46 168 -136 319 -263 445 -194 192
-444 295 -715 295 -84 0 -111 8 -111 35 0 5 25 43 55 84 184 244 246 573 164
873 -26 94 -105 256 -164 333 -46 61 -59 72 -68 58z"/>
<path d="M2434 3380 c-79 -15 -203 -57 -269 -93 -78 -42 -85 -71 -26 -110 22
-15 47 -27 55 -27 8 0 41 14 75 30 94 47 172 64 291 64 118 0 196 -17 295 -64
35 -17 68 -30 74 -30 6 0 30 12 52 27 32 21 39 32 37 52 -3 22 -18 33 -94 72
-50 25 -125 53 -165 63 -86 21 -252 29 -325 16z"/>
<path d="M1755 2476 c-18 -13 -18 -16 -3 -89 37 -168 98 -277 228 -407 107
-107 224 -182 288 -184 l37 -1 3 55 c1 30 -1 60 -5 65 -5 6 -40 29 -79 52
-165 97 -276 240 -324 418 -14 52 -21 62 -51 77 -55 26 -74 29 -94 14z"/>
<path d="M3258 2458 c-10 -7 -31 -53 -47 -101 -35 -105 -77 -178 -149 -258
-51 -56 -192 -159 -219 -159 -20 0 -33 -35 -33 -90 0 -37 4 -52 16 -57 45 -17
184 61 296 166 121 114 197 237 235 383 17 66 17 68 -3 95 -24 32 -69 41 -96
21z"/>
<path d="M2358 2261 l-48 -48 20 -59 c60 -172 74 -252 75 -414 0 -117 -4 -171
-18 -220 -25 -95 -98 -235 -161 -311 -102 -125 -269 -233 -424 -275 -46 -13
-62 -22 -60 -33 4 -20 71 -17 183 9 220 51 428 186 572 373 26 33 52 57 63 57
11 0 37 -24 63 -57 132 -171 320 -299 524 -358 109 -32 233 -45 233 -24 0 9
-33 24 -89 42 -320 101 -561 396 -596 729 -7 69 21 231 71 403 42 148 42 145
-9 192 l-45 42 -62 -20 c-77 -24 -103 -24 -181 1 l-63 19 -48 -48z"/>
</g>
</svg>
